<svg xmlns="http://www.w3.org/2000/svg" viewBox="0 0 384 672" shape-rendering="crispEdges">
<rect width="384" height="672" fill="#241f2c"/>
<!-- warm wall -->
<rect y="48" width="384" height="254" fill="#8c6958"/>
<rect y="302" width="384" height="370" fill="#6e493d"/>
<!-- floor planks -->
<g fill="#8f624f"><rect y="302" width="384" height="46"/><rect y="394" width="384" height="46"/><rect y="486" width="384" height="46"/><rect y="578" width="384" height="46"/></g>
<g stroke="#563a33" stroke-width="4"><path d="M0 348h384M0 440h384M0 532h384M0 624h384"/><path d="M48 302v370M96 302v370M144 302v370M192 302v370M240 302v370M288 302v370M336 302v370"/></g>
<!-- sign -->
<rect x="108" y="68" width="168" height="60" fill="#3d2b2a" stroke="#211a20" stroke-width="6"/>
<text x="192" y="94" text-anchor="middle" font-family="monospace" font-size="18" font-weight="700" fill="#f6e9ce">헬스보이짐</text>
<text x="192" y="115" text-anchor="middle" font-family="monospace" font-size="10" font-weight="700" fill="#d6b992">HEALTH BOY GYM</text>
<!-- lamps -->
<g fill="#2e252a"><rect x="70" y="20" width="6" height="34"/><rect x="306" y="20" width="6" height="34"/></g>
<g fill="#e9bd72" stroke="#2e252a" stroke-width="5"><path d="M54 54h38l-8 20H62z"/><path d="M290 54h38l-8 20h-22z"/></g>
<!-- vending machine left -->
<rect x="18" y="146" width="58" height="130" fill="#4c5360" stroke="#251f29" stroke-width="6"/>
<rect x="27" y="158" width="40" height="70" fill="#c7d6dc"/>
<g fill="#e5a87a"><rect x="31" y="164" width="7" height="16"/><rect x="42" y="164" width="7" height="16"/><rect x="53" y="164" width="7" height="16"/><rect x="31" y="187" width="7" height="16"/><rect x="42" y="187" width="7" height="16"/><rect x="53" y="187" width="7" height="16"/></g>
<rect x="31" y="240" width="31" height="9" fill="#23202a"/>
<!-- counter -->
<rect x="88" y="158" width="218" height="132" fill="#6a4538" stroke="#251f29" stroke-width="7"/>
<rect x="96" y="167" width="202" height="35" fill="#84604c"/>
<rect x="102" y="212" width="88" height="62" fill="#55372f"/>
<rect x="204" y="212" width="88" height="62" fill="#55372f"/>
<rect x="92" y="146" width="210" height="18" fill="#3b2b2b"/>
<!-- monitor / register -->
<rect x="116" y="116" width="50" height="42" fill="#25232c" stroke="#17131a" stroke-width="5"/>
<rect x="123" y="123" width="36" height="22" fill="#a3b4b0"/>
<rect x="235" y="124" width="34" height="24" fill="#c5a67e" stroke="#2a2024" stroke-width="4"/>
<!-- water dispenser and sofa -->
<rect x="315" y="130" width="42" height="100" fill="#d7d9df" stroke="#29232c" stroke-width="6"/>
<rect x="322" y="137" width="28" height="36" fill="#8bb4cf"/>
<rect x="323" y="178" width="12" height="7" fill="#405363"/>
<rect x="337" y="178" width="12" height="7" fill="#405363"/>
<rect x="300" y="250" width="70" height="56" fill="#3c3440" stroke="#211c25" stroke-width="6"/>
<rect x="307" y="243" width="56" height="28" fill="#514553"/>
<!-- plants and shelf -->
<rect x="82" y="126" width="22" height="32" fill="#6f8a55"/>
<rect x="86" y="152" width="14" height="12" fill="#4c332c"/>
<rect x="274" y="90" width="32" height="66" fill="#4b372f" stroke="#211b20" stroke-width="5"/>
<rect x="281" y="100" width="18" height="8" fill="#d5c39d"/><rect x="281" y="115" width="18" height="8" fill="#9c7ab7"/><rect x="281" y="130" width="18" height="8" fill="#7ea68f"/>
<!-- exit glow -->
<rect x="366" y="174" width="18" height="84" fill="#352f3a"/>
<path d="M365 202h12l-6-7m6 7-6 7" stroke="#f2cf78" stroke-width="5" fill="none"/>
<!-- soft lighting -->
<rect x="0" y="0" width="384" height="672" fill="#f4d7ba" opacity=".05"/>
</svg>