<svg xmlns="http://www.w3.org/2000/svg" width="192" height="336" viewBox="0 0 192 336">
  <defs>
    <linearGradient id="metal" x1="0" x2="1">
      <stop offset="0" stop-color="#9c9c98"/>
      <stop offset="0.18" stop-color="#d7d5cf"/>
      <stop offset="0.5" stop-color="#b8b7b3"/>
      <stop offset="0.82" stop-color="#dedbd4"/>
      <stop offset="1" stop-color="#969792"/>
    </linearGradient>
    <filter id="pinkGlow" x="-50%" y="-50%" width="200%" height="200%">
      <feGaussianBlur stdDeviation="1" result="b"/>
      <feMerge><feMergeNode in="b"/><feMergeNode in="SourceGraphic"/></feMerge>
    </filter>
    <filter id="whiteGlow" x="-50%" y="-50%" width="200%" height="200%">
      <feGaussianBlur stdDeviation=".7" result="b"/>
      <feMerge><feMergeNode in="b"/><feMergeNode in="SourceGraphic"/></feMerge>
    </filter>
    <pattern id="wood" width="6" height="6" patternUnits="userSpaceOnUse">
      <rect width="6" height="6" fill="#6f4c34"/>
      <rect width="2" height="6" fill="#8c6547"/>
      <rect x="3" width="1" height="6" fill="#4d3428"/>
      <rect x="5" width="1" height="6" fill="#9a7250"/>
    </pattern>
    <pattern id="tile" width="48" height="48" patternUnits="userSpaceOnUse">
      <rect width="48" height="48" fill="#e8ddcc"/>
      <rect x="1" y="1" width="46" height="46" fill="#eee5d8"/>
      <path d="M0 0H48M0 0V48" stroke="#c7b9a4" stroke-width="1"/>
      <path d="M3 3H45" stroke="#f8f3eb" stroke-width="1" opacity=".8"/>
    </pattern>
  </defs>

  <rect width="192" height="336" fill="#211e20"/>
  <rect x="4" y="4" width="184" height="328" rx="2" fill="url(#tile)" stroke="#30282a" stroke-width="3"/>
  <rect x="4" y="4" width="184" height="108" fill="url(#wood)"/>
  <rect x="4" y="108" width="184" height="5" fill="#292325"/>
  <rect x="11" y="10" width="170" height="6" rx="3" fill="#2e2828"/>
  <g fill="#ffe6b0">
    <rect x="22" y="15" width="20" height="3" rx="1.5"/>
    <rect x="86" y="15" width="20" height="3" rx="1.5"/>
    <rect x="150" y="15" width="20" height="3" rx="1.5"/>
  </g>
  <g fill="#fff3d2" opacity=".35">
    <rect x="26" y="18" width="12" height="18"/>
    <rect x="90" y="18" width="12" height="18"/>
    <rect x="154" y="18" width="12" height="18"/>
  </g>

  <text x="84" y="61" text-anchor="end" font-family="cursive" font-size="11" font-weight="700" font-style="italic" fill="#ff6ca9" filter="url(#pinkGlow)">PilaGirl</text>
  <g transform="translate(99 43)" fill="#fff" filter="url(#whiteGlow)" font-family="Arial Black, sans-serif" text-anchor="middle">
    <text x="31" y="10" font-size="5.7">HEALTH BOY</text>
    <text x="31" y="20" font-size="8.5">GYM</text>
    <rect x="3" y="11" width="9" height="2"/>
    <rect x="50" y="11" width="9" height="2"/>
    <rect x="1" y="8" width="2" height="8"/>
    <rect x="5" y="7" width="3" height="10"/>
    <rect x="54" y="7" width="3" height="10"/>
    <rect x="59" y="8" width="2" height="8"/>
  </g>

  <rect x="12" y="120" width="168" height="10" rx="3" fill="#f4efe7" stroke="#5b5552" stroke-width="2"/>
  <path d="M12 128 Q12 138 25 141 V157 Q25 165 34 165 H158 Q167 165 167 157 V141 Q180 138 180 128 Z" fill="url(#metal)" stroke="#4d4948" stroke-width="2"/>
  <path d="M29 161 H163" stroke="#686663" stroke-width="2"/>
  <rect x="29" y="166" width="134" height="4" rx="2" fill="#ffd88c" opacity=".9"/>
  <rect x="36" y="170" width="120" height="2" rx="1" fill="#fff0bc" opacity=".8"/>

  <g transform="translate(42 111)">
    <rect width="22" height="14" rx="1" fill="#26282b" stroke="#48484b"/>
    <rect x="3" y="3" width="16" height="7" fill="#657079"/>
    <rect x="9" y="14" width="4" height="5" fill="#3c3c3d"/>
  </g>
  <g transform="translate(136 110)">
    <rect width="18" height="16" rx="1" fill="#d8d7d2" stroke="#4e4d4c"/>
    <rect x="3" y="3" width="5" height="4" fill="#777b7d"/>
    <rect x="10" y="3" width="5" height="4" fill="#777b7d"/>
    <rect x="3" y="9" width="12" height="4" fill="#aaa9a6"/>
  </g>

  <rect x="77" y="318" width="38" height="18" rx="2" fill="#34302e" stroke="#272326" stroke-width="2"/>
  <rect x="83" y="314" width="26" height="5" rx="2" fill="#69625d"/>
</svg>