<svg xmlns="http://www.w3.org/2000/svg" viewBox="0 0 96 132" shape-rendering="crispEdges">
<rect width="96" height="132" fill="none"/>
<!-- long hair -->
<path fill="#2b2530" d="M24 20h8v-6h32v6h8v8h4v64h-8v18h-12V48H40v62H28V92h-8V28h4z"/>
<path fill="#3a313f" d="M32 16h30v4h8v10h4v50h-6V38H58v-8H32z"/>
<!-- bangs -->
<rect x="30" y="28" width="36" height="18" fill="#2b2530"/>
<rect x="30" y="42" width="36" height="28" fill="#f4c8b0"/>
<rect x="27" y="46" width="4" height="14" fill="#e9a88f"/>
<rect x="66" y="46" width="4" height="14" fill="#e9a88f"/>
<rect x="32" y="28" width="6" height="18" fill="#3a313f"/>
<rect x="42" y="28" width="4" height="16" fill="#3a313f"/>
<rect x="54" y="28" width="4" height="16" fill="#3a313f"/>
<!-- eyes -->
<rect x="36" y="50" width="9" height="11" fill="#2a2030"/>
<rect x="52" y="50" width="9" height="11" fill="#2a2030"/>
<rect x="38" y="51" width="3" height="3" fill="#fff7ef"/>
<rect x="54" y="51" width="3" height="3" fill="#fff7ef"/>
<rect x="42" y="58" width="2" height="2" fill="#9d665f"/>
<rect x="58" y="58" width="2" height="2" fill="#9d665f"/>
<rect x="44" y="64" width="9" height="2" fill="#d9849a"/>
<rect x="31" y="58" width="4" height="2" fill="#ef9cab"/>
<rect x="62" y="58" width="4" height="2" fill="#ef9cab"/>
<!-- lavender top -->
<rect x="28" y="70" width="40" height="30" fill="#c7b1df"/>
<rect x="22" y="74" width="8" height="26" fill="#c7b1df"/>
<rect x="66" y="74" width="8" height="26" fill="#c7b1df"/>
<rect x="24" y="98" width="6" height="8" fill="#f4c8b0"/>
<rect x="66" y="98" width="6" height="8" fill="#f4c8b0"/>
<!-- black shorts -->
<rect x="30" y="100" width="17" height="16" fill="#25232b"/>
<rect x="49" y="100" width="17" height="16" fill="#25232b"/>
<rect x="32" y="116" width="13" height="8" fill="#f4c8b0"/>
<rect x="51" y="116" width="13" height="8" fill="#f4c8b0"/>
<!-- shoes -->
<rect x="28" y="124" width="20" height="6" fill="#faf8f5"/>
<rect x="48" y="124" width="20" height="6" fill="#faf8f5"/>
<rect x="28" y="130" width="20" height="2" fill="#8d8991"/>
<rect x="48" y="130" width="20" height="2" fill="#8d8991"/>
</svg>